# xmcd
#
# Track frame offsets:
#	150
#	18632
#	35643
#	56728
#	71510
#	86468
#
# Disc length: 1430 seconds
#
# Revision: 1
# Processed by: cddbd v1.4PL0 Copyright (c) Steve Scherf et al.
# Submitted via: audiograbber 1.82.02
#
DISCID=4c059406
DTITLE=Barry Amato - Vintage
DYEAR=2003
DGENRE=Country
TTITLE0=Coast of Colorado
TTITLE1=Strange
TTITLE2=The Only Thing Wrong
TTITLE3=Stubborn Heart
TTITLE4=I Want You To Want Me
TTITLE5=The Beat Goes On
EXTD=
EXTT0=
EXTT1=
EXTT2=
EXTT3=
EXTT4=
EXTT5=
PLAYORDER=
